<?xml version="1.0" encoding="utf-8"?>
<!-- Generator: Adobe Illustrator 24.2.1, SVG Export Plug-In . SVG Version: 6.00 Build 0)  -->
<svg version="1.1" id="Layer_1" xmlns="http://www.w3.org/2000/svg" xmlns:xlink="http://www.w3.org/1999/xlink" x="0px" y="0px"
	 viewBox="0 0 949 356" style="enable-background:new 0 0 949 356;" xml:space="preserve">
<style type="text/css">
	.st0{fill-rule:evenodd;clip-rule:evenodd;fill:#fab028;}
</style>
<path id="GamblingTherapy" class="st0" d="M0,83c0.8-3.4,1.5-6.8,2.3-10.1c7.8-29.5,31.5-37.5,55.3-35.4c8.8,0.8,16.7,4.2,23.2,12
	c0.2-3.6,0.3-6.3,0.4-9.1c0.7-0.2,1.4-0.3,2.1-0.3c11.5,0,23,0,35,0c0.1,2,0.2,3.7,0.2,5.5c0,32,0,64,0,96c0,5-0.3,10-1,14.9
	c-2.6,16.7-13,26.6-28.7,31.1c-20.6,5.9-42.4,6.2-63.2,0.9c-16.2-4.1-23-12.7-24.9-29.6c-0.1-1.3-0.5-2.6-0.8-3.8v-3h39.6
	c1,9.3,3.2,12.2,11.9,13.4c4.8,0.6,9.9-0.1,14.7-1c5.5-0.8,9.7-5.4,10.1-11c0.6-5.8,0.6-11.7,0.9-18.9c-6.1,7.1-13.1,9.2-20.4,10.1
	c-26.7,3.1-46.8-7.9-54.4-33.4c-1-3.3-1.6-6.7-2.4-10.1V83z M76.4,92.5c-0.5-4.3-0.7-7.7-1.3-10.9c-1.6-8.6-6.5-13.3-14-13.8
	c-8.9-0.6-15.3,3.4-18,11.9c-2.7,8.1-2.8,16.9-0.3,25.1c2.2,7.4,7.3,11.1,15.1,11.3c7.9,0.2,13.8-3.5,16.1-10.8
	C75.4,100.8,75.8,96.1,76.4,92.5z M710,356c-0.3-1.5-0.4-2.9-0.5-4.4c0-47.3,0-94.6,0-141.9c0-1.1,0.2-2.3,0.3-3.8h41.9
	c0.2,2.3,0.3,4.4,0.5,7.1c9.5-8.9,20.6-10.9,32.6-10.1c17.7,1.1,30.2,10,37,26.1c8.5,19.9,9,40.6,1.3,60.8
	c-10.8,28.7-45.7,38.4-71.1,19.2V356H710z M751.4,260.9c0.5,4.6,0.7,9,1.6,13.2c1.8,8.5,7.5,13.5,14.9,13.6
	c7.6,0.2,14.8-4.8,15.8-13.1c1.1-9.2,1.1-18.4-0.1-27.6c-1-7.8-7.2-12.1-14.2-12.3c-7.8-0.2-14.1,4.3-16.1,12.2
	C752.1,251.5,751.9,256.4,751.4,260.9z M501,0v46.1c0.5,0.1,1.1,0.1,1.7,0c27.7-19.1,62.2-6.8,71,25.9c4.9,17.5,3.6,36.2-3.7,52.8
	c-9.7,22.7-33.6,33.7-56.9,26.1c-4.5-1.4-8.5-4.2-12.9-6.5c-0.1,1.2-0.3,3.1-0.5,5.4H458V0H501z M534.1,95.6l-0.5-0.1
	c-0.2-3.5-0.4-7-0.8-10.4c-0.2-1.6-0.6-3.3-1.2-4.8c-2.4-7.2-7.9-11.8-14.3-12c-6.6-0.2-12.8,4.3-15.2,11.6
	c-3.2,10-3.2,20.9,0.1,30.9c1.8,6.3,7.7,10.6,14.2,10.5c6.9,0.1,12.3-3.5,14.6-10.6C532.6,105.7,533.1,100.6,534.1,95.6z M857,356
	l-13.6-2.2v-30.6c4.2,0,8.4,0,12.7,0c8.1-0.1,9.8-2.4,7.2-10.1c-11.5-34.1-23.1-68.2-34.7-102.3c-0.5-1.5-1-3-1.7-5.3h24.9
	c5.2,0,10.3,0.2,15.5-0.1c3.6-0.2,5.1,0.8,5.9,4.7c4.1,20.3,8.6,40.6,13,60.9c0.3,1.4,0.8,2.8,1.5,5.4c2.6-11.1,4.9-21.1,7.2-31.1
	c2.7-12,5.5-24,8.1-36c0.7-3.1,2.1-3.9,5.1-3.9c11.8,0.2,23.7,0.1,35.5,0c1.8,0,3.6-0.3,5.4-0.4v2c-0.5,0.8-0.9,1.7-1.2,2.6
	c-12.6,36.9-25.1,73.8-37.9,110.6c-2.4,7-5.4,13.9-9,20.4c-4,7.3-11,12.4-19.1,14c-2.6,0.6-5.2,0.9-7.8,1.4L857,356L857,356z M627,0
	c0.1,1.3,0.3,2.6,0.3,4c0,47.3,0,94.6,0,141.9c0,1.2-0.1,2.3-0.2,3.9H584V0H627z M684,0v29h-44V0H684z M444.8,150h-43.4v-5.6
	c0-17,0-34,0-51c0-2,0-4-0.2-6c-0.8-9.5-5.8-14-15.4-13.7c-9.2,0.2-14.8,5.5-14.9,14.6c-0.2,18.7-0.1,37.3-0.1,56c0,1.8,0,3.6,0,5.7
	h-43.7c0-1.8,0-3.6,0-5.3c0-18.5,0-37-0.1-55.5c-0.1-9.3-4.7-14.6-12.9-15.3c-9.5-0.8-15.8,3.8-17.5,13.1c-0.4,2.3-0.5,4.6-0.5,7
	c0,18.5,0,37,0,55.9h-43.1V40.3h41.5v14.6c9.6-14.3,22.6-17.8,37.2-17.2c14.6,0.6,27.1,5.1,34.5,19.5c1.9-2.5,3.6-4.9,5.5-7
	C383,37.9,397.5,36.4,412.7,38c15.4,1.6,27,11.5,30.7,26c0.8,2.7,1.2,5.5,1.3,8.4C444.9,98,444.8,123.7,444.8,150z M822.6,152h38.5
	c0.3,1.1,0.6,2.2,0.8,3.3c0.4,5.2,3.5,8.7,8.2,9.3c5.9,0.8,11.8,0.7,17.7-0.2c6.1-1,9.9-5.3,10.5-11.7c0.5-5.6,0.6-11.2,0.9-17.7
	c-12.7,11.6-27,11.2-41.5,8.7c-11.7-2-20.8-8.7-27.2-18.6c-12.3-18.9-11.6-51.5,1.8-69.7c11.8-16,28.7-19.4,47.1-18
	c9.2,0.5,17.8,4.9,23.5,12.2v-9.3h37c0.2,0.9,0.4,1.8,0.5,2.7c-0.1,35.3,0.1,70.6-0.3,105.9c-0.2,20.4-9.7,32.8-29.2,38.5
	c-20.9,6.1-43.1,6.3-64.1,0.6C829.2,183.4,820.9,170.6,822.6,152z M898.2,91.5c-0.3-3-0.6-6.1-1.1-9.2c-1.4-8.8-6.3-13.9-13.9-14.5
	c-9.2-0.7-16.1,3.2-18,12.1c-1.5,7.3-1.8,14.7-1,22.1c0.9,9.3,6.9,13.9,15.8,14c8.9,0.1,15.2-5,16.9-13.9
	C897.5,98.7,897.7,95.2,898.2,91.5L898.2,91.5z M371,316.8h-36.5v-79.9h-39.3v79.6h-42.6V166h43.2v49c0.6,0,1.2-0.1,1.7-0.4
	c11.4-15.2,39.1-17.2,55.1-8.8c13.5,7.1,18.1,19.1,18.3,33.1c0.4,23.8,0.1,47.6,0.1,71.5C371,312.4,371,314.4,371,316.8z M242.5,150
	H202c-0.3-2.4-0.5-4.6-0.8-7.5c-12,8.2-25,10.8-38.7,10.4c-17.2-0.6-30-9.5-34.4-23.9c-6.8-22.2,5.5-41.8,29.8-46.8
	c11.9-2.5,23.9-4.1,35.9-6.1c1.7-0.4,3.4-0.8,5.1-1.4c0.7-7.1-1.5-10.9-7.8-11.9c-4.2-0.7-8.6-0.6-12.8,0.2
	c-2.2,0.4-5.3,2.7-5.9,4.6c-1.3,4.9-4.5,4.9-8.2,4.9c-11.3,0-22.6,0-33.9,0c2-17.3,12.5-27.6,28.7-32.2c17.7-5,36.4-5.3,54.3-0.9
	c18.2,4.3,26.7,15.1,27.1,34.3c0.5,20.6,0.1,41.3,0.3,62C240.8,140.2,241.8,144.9,242.5,150z M198.7,99.6c-7,2-14,4-21,6
	c-1.6,0.5-3.1,1.1-4.6,1.8c-5,2.5-7.3,6.7-6,10.8c1.6,4.9,5.7,6.2,10.3,6.2C190.4,124.4,200.3,113.1,198.7,99.6L198.7,99.6z
	 M698.8,315.6h-40.4c-0.2-2.5-0.3-4.8-0.4-6.1c-8.3,2.6-16.5,6.5-25.1,7.7c-8.4,1.2-16.9,0.9-25.2-0.9
	c-14.2-3.1-23.7-15.6-24.6-29.8c-1.1-16.2,6.1-29.9,20.7-35.2c10.3-3.7,21.6-5,32.5-7.2c5.4-1.1,10.8-2.1,16.2-3
	c3.6-0.6,4.6-2.8,3-5.6c-1.5-2.6-3.6-6.1-5.9-6.6c-5.2-0.9-10.4-1-15.6-0.2c-1.9,0.2-4.5,2.8-5.1,4.8c-1.2,4.2-3.8,4.6-7.4,4.6
	c-11.3-0.1-22.6-0.1-34.3-0.1c0.6-10.8,6.4-20.6,15.5-26.4c8.7-5.8,18.5-8,28.7-9c13.3-1.2,26.6-1.3,39.6,2.3
	c17.8,5,26,15.6,26.1,34.1c0.1,19-0.1,38,0.1,57C697.3,302.5,698.2,309,698.8,315.6z M655.5,264.8c-8.6,2.6-17,4.8-25,7.8
	c-5.6,2-8.1,6.6-7,10.6c1.3,4.6,6,7.3,12,6.7C648,288.7,656.7,278.1,655.5,264.8L655.5,264.8z M696.3,40.1h40.4v14.1
	c11.8-15.2,26.8-18.9,43.5-16.5c20.4,3,31.9,15.4,32.5,36.1c0.7,25,0.2,50,0.2,75c-0.1,0.4-0.3,0.8-0.5,1.2h-42.5
	c-0.1-2-0.2-3.7-0.2-5.5c0-18,0.2-36-0.1-54c-0.1-4-0.8-8.5-2.8-11.8c-3.7-5.9-10.3-5.4-16.3-4.5c-5.4,0.8-9,4.3-10.3,9.6
	c-0.7,2.9-1,5.9-0.9,8.9c-0.1,17.2,0,34.3,0,51.5c0,1.8,0,3.6,0,5.8h-42.8L696.3,40.1L696.3,40.1z M498,268.7h-74.5
	c-1.2,8.6,2.8,16.2,9.8,19.1c10.2,4.2,18.3,0.5,27.7-12.8l35.1,14.9c-3.8,7.1-9.3,13.2-16.1,17.7c-21.8,14.8-45.4,17.3-69.3,6.8
	c-22.9-10.1-31.8-30.2-32.3-54.2c-0.5-25.3,12.7-45.7,34.2-54.2c25.2-10,54.2-4.8,70.8,13c9,9.6,13.4,21.3,14.5,34.3
	C498.3,258,498,263,498,268.7z M423.5,244.9h30.2c0.6-8.4-4.6-15.1-12.4-15.9C431.8,227.9,424.8,234.1,423.5,244.9L423.5,244.9z
	 M229.8,173.6V208h18v23.9h-18.9c0,8.7,0,16.8,0,24.9c0,5.7-0.2,11.3-0.2,17c0,8.5,3.3,11.8,11.8,11.9c2.3,0,4.6-0.4,7.3-0.6v29.7
	c-13.9,2.1-27.9,3.9-41.9,0.7c-13.5-3.1-20.8-12.7-20.9-26.8c-0.1-16.8,0.3-33.7,0.4-50.5c0-1.8,0-3.6,0-6.1H171v-24h15v-34.6H229.8
	L229.8,173.6z M548.2,315.7h-42.7V205.9h41.3c0.1,2.6,0.3,5.1,0.4,8.8c10.3-9.5,22.2-12.1,35.4-11.5v36.7c-3.9,0-7.8-0.1-11.8,0
	c-14.4,0.5-22.5,8.6-22.6,23c-0.1,15.7,0,31.3,0,47L548.2,315.7L548.2,315.7z M640.3,40.2h42.8V150h-42.8V40.2z"/>
</svg>
