<?xml version="1.0" encoding="utf-8"?>
<!-- Generator: Adobe Illustrator 24.2.1, SVG Export Plug-In . SVG Version: 6.00 Build 0)  -->
<svg version="1.1" id="Warstwa_1" xmlns="http://www.w3.org/2000/svg" xmlns:xlink="http://www.w3.org/1999/xlink" x="0px" y="0px"
	 viewBox="0 0 426.2 139.7" style="enable-background:new 0 0 426.2 139.7;" xml:space="preserve">
<style type="text/css">
	.st0{fill:#fab028;}
</style>
<path id="path14_1_" class="st0" d="M16.4,35.2V51h12.3c4.7,0.3,8.8-2.9,9.1-7.6c0,0,0,0,0-0.3c0-5-4.1-8.2-10.3-8.2L16.4,35.2z
	 M16.4,12v14.1h11.4c4.1,0.3,7.9-2.6,8.2-6.7c0-0.3,0-0.6,0-0.6c0-3.8-3.8-6.7-9.1-6.7H16.4V12z M0,2.6h22.3c10,0,13.5,0.3,16.4,1.5
	c5.6,2.6,8.8,7.9,8.8,14.1c0,5.9-1.8,8.8-7.6,11.7c6.2,2.1,10.3,7.9,9.7,14.4c0,9.7-7.6,16.1-18.8,16.1H0V51h4.4V12H0V2.6"/>
<path id="path16_1_" class="st0" d="M87.1,33.2c0-5-4.1-8.8-8.8-8.8H78c-5,0-9.1,3.8-10,8.5L87.1,33.2z M98.3,46.1
	c-2.1,9.7-10,15.6-20.5,15.6c-12.3,0-21.4-9.7-21.4-23.2s9.1-23.2,21.4-23.2c6.7,0,13.2,3.2,17,9.1c2.9,5,4.7,10.6,4.4,16.4H67.5
	c1.2,11.4,8.5,12,10.6,12c4.1,0.3,7.9-2.6,9.1-6.5L98.3,46.1"/>
<path id="path18_1_" class="st0" d="M135,31.7h20.2v28.8h-6.5v-9.1c-1.2,2.1-2.6,3.8-4.4,5.6c-3.8,3.2-8.5,5-13.2,5
	C117.6,62,107,48.8,107,31.8s10.6-30.5,23.8-30.5c7.3-0.3,13.8,3.8,17.3,10V2.1h6.2v18.5h-6.5c-0.6-2.6-1.8-5-3.2-7
	c-2.9-3.8-7.6-6.2-12.3-6.5c-7,0-17.6,6.2-17.6,24.1c0,14.1,7.6,24.4,17.6,24.4c7.9-0.3,14.4-6.2,15.8-13.8c0.3-1.5,0.3-3.2,0.3-4.7
	h-13.8L135,31.7"/>
<path id="path20_1_" class="st0" d="M191.9,37.8l-4.1,0.6c-13.5,1.8-17.9,4.1-17.9,9.7c0.3,5,4.4,8.5,9.1,8.5
	c6.5-0.3,12-5,12.9-11.4V37.8z M204.5,60.7h-12.6v-7.9c-2.9,5.6-8.8,8.8-15,8.8c-7.3,0.6-13.8-5.3-14.4-12.6c0-0.3,0-0.6,0-0.9
	c0-8.5,7.3-12.6,24.9-14.4l4.1-0.3V29c0-5-3.8-8.2-10-8.2s-9.4,2.1-10.6,7.9h-6.7c0.6-3.5,2.3-6.7,5-9.1c3.2-2.6,7.6-3.8,11.7-3.8
	c9.1,0,16.7,4.1,16.7,15.3v24.4h6.2L204.5,60.7"/>
<path id="path22_1_" class="st0" d="M223,24.6c2.1-2.9,5.9-9.1,14.1-9.1c5.9,0,9.1,2.9,10.3,9.1c1.2-2.1,2.3-3.8,4.1-5.6
	c2.6-2.3,5.9-3.8,9.4-3.8c6.7,0,10.6,4.4,10.6,12v27.9h6.2v5.3h-12.3V29.6c0-6.2-2.1-9.1-6.5-9.1c-7.6,0-11.7,9.1-11.7,12.3v22.3
	h6.5v5.3h-12.9V28.8c0-5.6-2.1-7.9-6.5-7.9c-6.7,0-11.7,8.5-11.7,12.6v22h6.5v5.3H210v-5.3h6.5v-34H210v-5.3h12.9L223,24.6"/>
<path id="path24_1_" class="st0" d="M296.6,42c0,7.3,5.6,13.2,12.6,13.8c7.6,0,12.3-6.7,12.3-17.6s-5-17.3-12.3-17.3
	c-6.5,0-12.9,7-12.9,13.5C296.3,34.4,296.6,42,296.6,42z M284.3,0h12.3v25.5c1.8-3.2,6.7-9.7,14.4-9.7c10,0,17.6,10.3,17.6,23.2
	c0,12-8.2,22.3-17.6,22.3c-7.9,0-11.7-5.3-14.4-8.8v8.2H284v-5.3h6.2V5.3h-5.9L284.3,0"/>
<path id="path26_1_" class="st0" d="M332.4,0H345v55.5h5.9v5.3h-18.8v-5.3h6.5V5h-6.2V0"/>
<path id="path28_1_" class="st0" d="M387.5,34.9c0-4.1-1.5-7.9-4.4-11.1c-2.1-1.8-4.7-2.9-7.3-2.6c-5.6,0.3-10.3,4.1-11.7,9.4
	c-0.3,1.5-0.9,2.9-0.9,4.4L387.5,34.9z M394,48.4c-0.6,2.6-1.8,4.7-3.5,6.7c-3.5,4.1-8.5,6.5-14.1,6.5c-12,0-20.5-9.4-20.5-22.9
	c0-12.9,8.5-22.9,19.4-22.9S395,24.3,395,39.9h-32c0.6,6.5,2.1,10.3,5,13.2c2.3,2.1,5.3,3.2,8.2,3.2c5,0,8.2-2.3,10.6-7.6L394,48.4"
	/>
<path id="path40_1_" class="st0" d="M413.7,14.6c0.4-0.1,0.8-0.2,1.1-0.4c0.3-0.2,0.6-0.5,0.8-0.8c0.2-0.3,0.3-0.8,0.3-1.3
	c0-0.7-0.2-1.4-0.6-1.8c-0.4-0.5-1.1-0.7-2-0.7h-4.9v5.2h4.1C412.8,14.7,413.3,14.7,413.7,14.6z M413.3,7.9c1.4,0,2.5,0.3,3.3,1
	s1.2,1.6,1.2,2.8c0,0.9-0.2,1.7-0.6,2.4s-1.1,1.1-2,1.4c0.4,0.1,0.8,0.2,1.1,0.4c0.3,0.2,0.5,0.4,0.6,0.7c0.2,0.3,0.3,0.6,0.4,0.9
	s0.1,0.7,0.2,1c0,0.4,0,0.7,0.1,1.1c0,0.4,0.1,0.7,0.1,1.1c0.1,0.4,0.1,0.7,0.2,1s0.3,0.6,0.5,0.9h-2.2c-0.1-0.2-0.2-0.4-0.3-0.6
	c-0.1-0.3-0.1-0.6-0.1-0.9s0-0.7,0-1c0-0.4-0.1-0.7-0.1-1.1c-0.1-0.4-0.1-0.7-0.2-1s-0.2-0.6-0.4-0.9c-0.2-0.2-0.4-0.4-0.7-0.6
	c-0.3-0.1-0.7-0.2-1.2-0.2h-4.8v6.3h-2V7.9H413.3"/>
<path id="path42_1_" class="st0" d="M411.8,3.8c-6.6,0-12,5.4-12,12s5.4,12,12,12s12-5.4,12-12C423.9,9.2,418.5,3.8,411.8,3.8z
	 M411.8,30.2c-7.9,0-14.4-6.4-14.4-14.4c0-7.9,6.4-14.4,14.4-14.4c7.9,0,14.4,6.4,14.4,14.4S419.8,30.2,411.8,30.2"/>
<path id="path30_2_" class="st0" d="M29.5,82.8l-7.6,25.8h15.3L29.5,82.8z M22.4,71.9h14.1l16.1,48.7H57v9.4H43.8L40,117.4H19.5
	L15.7,130H2.2v-9.4h4.4L22.4,71.9"/>
<path id="path32_2_" class="st0" d="M56.4,85.7H74v8.5h-4.4l6.2,26.1l7.3-34.6h11.4l7.3,34l5.9-25.5h-4.4v-8.5H121v8.5h-3.8
	l-9.4,35.5H96.1l-7.3-30.5l-7,30.5H69.9l-9.7-35.5h-3.8V85.7"/>
<path id="path34_2_" class="st0" d="M152.1,109.2c-10.3,0.9-17,1.8-17,7.9c0,3.5,2.9,5.9,7.3,5.9c5.3,0,9.7-4.1,10-9.4v-4.4H152.1z
	 M162.7,121.5h3.8v8.5h-13.8v-5.3c-3.2,4.1-8.2,6.2-13.5,6.2c-8.8,0-15.6-5.9-15.6-13.8c0-12.9,14.7-14.4,28.8-15.6
	c0-6.7-2.3-8.8-7.9-8.8c-5.6,0-7.6,2.6-7.9,6.7v0.3L126,99.5c0.6-8.8,7.6-14.4,18.2-14.4c12.3,0,18.8,5.6,18.8,15.6L162.7,121.5"/>
<path id="path36_2_" class="st0" d="M187.3,92.8c2.9-5.6,6.2-7.9,11.1-7.9c1.8,0,3.2,0.3,5,0.6v10.3c-1.8-0.3-3.5-0.6-5.3-0.6
	c-5.6-0.3-10.3,3.8-10.6,9.1v17h5.3v8.5h-20.5v-8.5h4.4v-27h-4.4v-8.5h15V92.8"/>
<path id="path38_2_" class="st0" d="M236.3,102.4c0-5-4.1-8.8-8.8-8.8h-0.3c-5,0-9.1,3.8-10,8.5L236.3,102.4z M247.7,115.4
	c-2.1,9.7-10,15.6-20.5,15.6c-12.3,0-21.4-9.7-21.4-23.2s9.1-23.2,21.4-23.2c6.7,0,13.2,3.2,17,9.1c2.9,5,4.7,10.6,4.4,16.4h-31.7
	c1.2,11.4,8.5,12,10.6,12c4.1,0.3,7.9-2.6,9.1-6.5L247.7,115.4"/>
<path id="path44_2_" class="st0" d="M253.9,124.2h5.5v5.4h-5.5V124.2"/>
<path id="path46_2_" class="st0" d="M278.6,126.3c6,0,9.6-4.8,9.6-12.8c0-7.5-3.8-12.3-9.6-12.3c-5.7,0-9.3,4.8-9.3,12.5
	C269.4,121.7,272.8,126.3,278.6,126.3z M264.2,113.7c0-9.7,6-16.3,14.6-16.3c8.4,0,14.6,6.9,14.6,16.3c0,9.8-6,16.6-14.7,16.6
	C270.1,130.3,264.2,123.6,264.2,113.7"/>
<path id="path48_2_" class="st0" d="M305.7,105.1c1.5-3.3,2.4-4.3,3.8-5.7c1.7-1.4,3.7-2.2,5.8-2.2c0.8,0,1.8,0.1,3.4,0.4v4.7
	c-1.6-0.3-2.5-0.4-3.4-0.4c-8.6,0-9.6,8.9-9.6,9.4v14.6h5.4v3.7h-14.5v-3.7h4.5v-24.3h-4.7v-3.8h9.3L305.7,105.1"/>
<path id="path50_2_" class="st0" d="M343.6,109.5c0-3.5-4.2-8.4-9.1-8.4c-5.2,0-8.4,4.2-8.4,11.1c0,7,3.2,11.3,8.7,11.3
	c4.7,0,8.8-4.5,8.8-8.3V109.5z M343.6,121.8c-2.9,4.1-6.1,5.4-9.5,5.4c-7.6,0-12.9-6.2-12.9-15.3c0-8.5,5.1-14.6,12.3-14.6
	c5.8,0,8.4,3.7,10.1,6.1v-5.7h9v3.8h-4.4v26.1c0,7.7-4.9,12-13.5,12c-5.2,0-9.7-2.3-11.8-6c-0.4-0.8-0.8-1.5-1.3-3.1h5.1
	c1.9,3.8,4.1,5.2,8.4,5.2c5.4,0,8.6-2.8,8.6-7.4L343.6,121.8"/>
</svg>
