<?xml version="1.0" standalone="no"?>
<!DOCTYPE svg PUBLIC "-//W3C//DTD SVG 20010904//EN"
        "http://www.w3.org/TR/2001/REC-SVG-20010904/DTD/svg10.dtd">
<svg version="1.0" xmlns="http://www.w3.org/2000/svg"
     width="512.000000pt" height="512.000000pt" viewBox="0 0 512.000000 512.000000"
     preserveAspectRatio="xMidYMid meet">

    <g transform="translate(0.000000,512.000000) scale(0.100000,-0.100000)"
       fill="#fab028" stroke="none">
        <path d="M2370 5114 c-19 -2 -78 -9 -130 -15 -791 -90 -1522 -586 -1924 -1305
-146 -262 -252 -587 -297 -914 -20 -143 -18 -527 4 -670 90 -586 331 -1065
738 -1467 63 -62 155 -145 204 -185 685 -547 1603 -703 2445 -413 140 48 420
187 550 272 265 175 549 452 708 691 34 51 37 61 37 127 0 59 -4 78 -24 107
-39 56 -84 82 -156 86 -96 6 -127 -14 -232 -156 -363 -487 -923 -803 -1532
-862 -450 -44 -940 69 -1321 305 -448 278 -769 683 -929 1171 -148 452 -148
896 0 1348 214 653 723 1162 1378 1376 715 234 1485 85 2062 -399 150 -125
261 -250 427 -479 69 -96 202 -107 293 -25 46 42 72 114 62 175 -17 112 -324
477 -556 663 -370 297 -781 477 -1257 550 -100 15 -472 28 -550 19z"/>
        <path d="M2585 3500 c-198 -44 -352 -180 -417 -368 -18 -53 -23 -89 -23 -172
0 -118 22 -200 75 -284 17 -26 30 -49 30 -51 0 -3 -16 -26 -37 -52 -108 -142
-147 -334 -103 -507 29 -113 73 -190 160 -276 86 -87 163 -131 276 -160 141
-36 294 -18 427 52 81 42 203 164 245 245 41 78 72 198 72 277 -1 129 -48 270
-123 369 -21 26 -37 49 -37 52 0 2 13 25 30 51 53 84 75 166 75 284 0 83 -5
119 -23 172 -57 164 -183 291 -348 349 -67 23 -215 33 -279 19z m175 -410 c45
-23 80 -80 80 -130 0 -50 -35 -107 -80 -130 -21 -11 -53 -20 -70 -20 -50 0
-107 35 -130 80 -25 50 -25 90 0 140 37 73 124 99 200 60z m40 -714 c59 -39
85 -89 85 -166 0 -78 -26 -127 -88 -168 -56 -37 -153 -39 -210 -3 -76 47 -111
140 -88 229 14 51 75 117 123 131 53 16 135 6 178 -23z"/>
        <path d="M1427 3490 c-15 -4 -124 -79 -242 -165 -246 -179 -260 -195 -260
-295 0 -78 26 -127 88 -168 34 -23 52 -27 108 -27 60 0 72 4 113 33 26 17 49
32 51 32 2 0 6 -260 7 -577 l3 -578 24 -38 c13 -21 42 -50 64 -65 34 -23 52
-27 107 -27 55 0 73 4 107 27 22 15 51 44 64 65 l24 38 0 812 0 811 -30 43
c-16 23 -47 51 -69 62 -43 23 -117 31 -159 17z"/>
        <path d="M4352 3209 c-45 -13 -108 -80 -121 -126 -6 -21 -11 -111 -11 -200 l0
-161 -183 -4 c-180 -3 -184 -4 -224 -30 -63 -41 -88 -90 -88 -169 0 -54 5 -72
27 -106 15 -22 44 -51 65 -64 36 -23 49 -24 220 -27 l181 -4 4 -182 c3 -179 4
-183 30 -223 41 -62 90 -88 168 -88 78 0 127 26 168 88 26 40 27 44 30 223 l4
182 182 4 c179 3 183 4 223 30 62 41 88 90 88 168 0 78 -26 127 -88 168 -40
26 -44 27 -223 30 l-182 4 -4 181 c-3 171 -4 184 -27 220 -47 76 -151 113
-239 86z"/>
    </g>
</svg>
